SQR Cal 0P6 2mins																																				
version=1																																				
nRows=33																																				
nColumns=37																																				
inDegrees=yes																																				
endheader																																				
time	ground_force1_vx	ground_force1_vy	ground_force1_vz	ground_force1_px	ground_force1_py	ground_force1_pz	ground_torque1_x	ground_torque1_y	ground_torque1_z	ground_force2_vx	ground_force2_vy	ground_force2_vz	ground_force2_px	ground_force2_py	ground_force2_pz	ground_torque2_x	ground_torque2_y	ground_torque2_z	femur_assistance_force_vx	femur_assistance_force_vy	femur_assistance_force_vz	femur_assistance_force_px	femur_assistance_force_py	femur_assistance_force_pz	femur_assistance_torque_x	femur_assistance_torque_y	femur_assistance_torque_z	tibia_assistance_force_vx	tibia_assistance_force_vy	tibia_assistance_force_vz	tibia_assistance_force_px	tibia_assistance_force_py	tibia_assistance_force_pz	tibia_assistance_torque_x	tibia_assistance_torque_y	tibia_assistance_torque_z
97.5	183.352966	651.53595	42.01088	1.033136	0	-0.709514	0.000042	-1.138948	0.000024	0	0	0	0.889	0	-0.279	0	0	0	0	0	0	0	0	0	0	0	0	0	0	0	0	0	0	0	0	0
97.501	184.878845	651.383362	42.850113	1.033003	0	-0.709324	0.000036	0.124713	0.000025	0	0	0	0.889	0	-0.279	0	0	0	0	0	0	0	0	0	0	0	0	0	0	0	0	0	0	0	0	0
97.502	186.252136	652.298889	44.375992	1.031741	0	-0.709431	0.000021	1.466678	0.000056	0	0	0	0.889	0	-0.279	0	0	0	0	0	0	0	0	0	0	0	0	0	0	0	0	0	0	0	0	0
97.503	187.320251	652.604065	46.66481	1.03051	0	-0.709436	-0.000004	2.590182	0.000058	0	0	0	0.889	0	-0.279	0	0	0	0	0	0	0	0	0	0	0	0	0	0	0	0	0	0	0	0	0
97.504	187.854309	652.451477	48.877335	1.029254	0	-0.709059	0.000014	3.834904	0.000006	0	0	0	0.889	0	-0.279	0	0	0	0	0	0	0	0	0	0	0	0	0	0	0	0	0	0	0	0	0
97.505	187.472839	651.993713	50.250626	1.028853	0	-0.708771	0.000008	4.536374	0.000013	0	0	0	0.889	0	-0.279	0	0	0	0	0	0	0	0	0	0	0	0	0	0	0	0	0	0	0	0	0
97.506	187.167664	652.298889	51.166153	1.028372	0	-0.708683	0.000007	5.524555	0.00004	0	0	0	0.889	0	-0.279	0	0	0	0	0	0	0	0	0	0	0	0	0	0	0	0	0	0	0	0	0
97.507	186.252136	651.993713	52.234268	1.029602	0	-0.70821	0.000032	6.088329	0.000022	0	0	0	0.889	0	-0.279	0	0	0	0	0	0	0	0	0	0	0	0	0	0	0	0	0	0	0	0	0
97.508	185.336609	653.214417	53.683853	1.028612	0	-0.708604	0.000043	6.457932	0.000079	0	0	0	0.889	0	-0.279	0	0	0	0	0	0	0	0	0	0	0	0	0	0	0	0	0	0	0	0	0
97.509	184.573669	655.350647	55.438614	1.02824	0	-0.70929	0.000021	6.614063	0.000107	0	0	0	0.889	0	-0.279	0	0	0	0	0	0	0	0	0	0	0	0	0	0	0	0	0	0	0	0	0
97.51	182.590027	656.418762	57.422256	1.029542	0	-0.709121	0.000025	5.792766	0.000041	0	0	0	0.889	0	-0.279	0	0	0	0	0	0	0	0	0	0	0	0	0	0	0	0	0	0	0	0	0
97.511	180.758972	657.181702	59.024429	1.029647	0	-0.708946	0.000052	5.798083	0.000004	0	0	0	0.889	0	-0.279	0	0	0	0	0	0	0	0	0	0	0	0	0	0	0	0	0	0	0	0	0
97.512	179.233093	656.723938	60.39772	1.029993	0	-0.708289	-0.000001	5.319944	-0.000007	0	0	0	0.889	0	-0.279	0	0	0	0	0	0	0	0	0	0	0	0	0	0	0	0	0	0	0	0	0
97.513	178.01239	656.57135	61.465836	1.029675	0	-0.708007	0.000002	5.191703	0.000067	0	0	0	0.889	0	-0.279	0	0	0	0	0	0	0	0	0	0	0	0	0	0	0	0	0	0	0	0	0
97.514	176.867981	656.418762	62.305069	1.030658	0	-0.707912	0.00003	4.728188	0.000035	0	0	0	0.889	0	-0.279	0	0	0	0	0	0	0	0	0	0	0	0	0	0	0	0	0	0	0	0	0
97.515	176.562805	657.029114	62.762833	1.030258	0	-0.708294	-0.000004	5.187184	-0.000017	0	0	0	0.889	0	-0.279	0	0	0	0	0	0	0	0	0	0	0	0	0	0	0	0	0	0	0	0	0
97.516	175.723572	658.249817	62.839127	1.029089	0	-0.70887	0.000005	4.980021	0.000041	0	0	0	0.889	0	-0.279	0	0	0	0	0	0	0	0	0	0	0	0	0	0	0	0	0	0	0	0	0
97.517	175.265808	658.860168	62.991714	1.028877	0	-0.709158	0.000022	4.354024	0.000045	0	0	0	0.889	0	-0.279	0	0	0	0	0	0	0	0	0	0	0	0	0	0	0	0	0	0	0	0	0
97.518	175.036926	658.402405	61.923599	1.029221	0	-0.708965	0.000007	4.21181	0.000032	0	0	0	0.889	0	-0.279	0	0	0	0	0	0	0	0	0	0	0	0	0	0	0	0	0	0	0	0	0
97.519	175.723572	659.165344	60.626602	1.028215	0	-0.709996	0.000018	3.877237	0.000078	0	0	0	0.889	0	-0.279	0	0	0	0	0	0	0	0	0	0	0	0	0	0	0	0	0	0	0	0	0
97.52	177.020569	660.386047	59.405899	1.027239	0	-0.710382	-0.000011	3.394372	0.000066	0	0	0	0.889	0	-0.279	0	0	0	0	0	0	0	0	0	0	0	0	0	0	0	0	0	0	0	0	0
97.521	178.470154	661.911926	58.490372	1.027637	0	-0.71031	0.000013	2.780709	0.000063	0	0	0	0.889	0	-0.279	0	0	0	0	0	0	0	0	0	0	0	0	0	0	0	0	0	0	0	0	0
97.522	180.224915	664.200745	57.651138	1.027772	0	-0.711076	0.000016	2.383778	0.000097	0	0	0	0.889	0	-0.279	0	0	0	0	0	0	0	0	0	0	0	0	0	0	0	0	0	0	0	0	0
97.523	181.750793	666.184387	56.964493	1.027277	0	-0.711558	0.00005	1.760687	0.000044	0	0	0	0.889	0	-0.279	0	0	0	0	0	0	0	0	0	0	0	0	0	0	0	0	0	0	0	0	0
97.524	182.971497	667.099915	56.201553	1.027697	0	-0.711752	0.000051	1.029877	0.00007	0	0	0	0.889	0	-0.279	0	0	0	0	0	0	0	0	0	0	0	0	0	0	0	0	0	0	0	0	0
97.525	184.649963	667.252502	54.98085	1.027279	0	-0.712028	0.000034	0.681933	0.000029	0	0	0	0.889	0	-0.279	0	0	0	0	0	0	0	0	0	0	0	0	0	0	0	0	0	0	0	0	0
97.526	185.565491	667.099915	54.217911	1.02605	0	-0.712209	0.000034	0.223474	0.000064	0	0	0	0.889	0	-0.279	0	0	0	0	0	0	0	0	0	0	0	0	0	0	0	0	0	0	0	0	0
97.527	185.94696	667.252502	53.149796	1.025266	0	-0.71276	0.000026	-0.295027	0.000001	0	0	0	0.889	0	-0.279	0	0	0	0	0	0	0	0	0	0	0	0	0	0	0	0	0	0	0	0	0
97.528	185.565491	667.710266	51.929092	1.022918	0	-0.713221	0.000042	-1.054306	0.000033	0	0	0	0.889	0	-0.279	0	0	0	0	0	0	0	0	0	0	0	0	0	0	0	0	0	0	0	0	0
97.529	185.107727	667.252502	50.403214	1.023254	0	-0.713309	0.000022	-1.97069	-0.000009	0	0	0	0.889	0	-0.279	0	0	0	0	0	0	0	0	0	0	0	0	0	0	0	0	0	0	0	0	0
97.53	184.573669	666.794739	49.258804	1.023407	0	-0.712938	0.000028	-2.542566	0.000026	0	0	0	0.889	0	-0.279	0	0	0	0	0	0	0	0	0	0	0	0	0	0	0	0	0	0	0	0	0
97.531	184.268494	666.794739	48.495865	1.023041	0	-0.71303	0.000017	-3.166591	0.000025	0	0	0	0.889	0	-0.279	0	0	0	0	0	0	0	0	0	0	0	0	0	0	0	0	0	0	0	0	0
97.532	183.887024	667.252502	47.961807	1.023071	0	-0.713217	0.000038	-3.787566	0.000035	0	0	0	0.889	0	-0.279	0	0	0	0	0	0	0	0	0	0	0	0	0	0	0	0	0	0	0	0	0
